<svg xmlns="http://www.w3.org/2000/svg" xmlns:xlink="http://www.w3.org/1999/xlink" fill="none" stroke="none" stroke-linecap="square" stroke-miterlimit="10" version="1.1" viewBox="0 0 100 100"><clipPath id="p.0"><path d="m0 0l100.0 0l0 100.0l-100.0 0l0 -100.0z" clip-rule="nonzero"/></clipPath><g clip-path="url(#p.0)"><path fill="#000" fill-opacity="0" fill-rule="evenodd" d="m0 0l100.0 0l0 100.0l-100.0 0z"/><path fill="#000" fill-rule="evenodd" d="m12.192913 12.645669l15.370079 0l0 14.929133l-15.370079 0z"/><path fill="#000" fill-rule="evenodd" d="m32.274277 12.645669l15.370079 0l0 14.929133l-15.370079 0z"/><path fill="#000" fill-rule="evenodd" d="m52.355644 12.645669l15.370079 0l0 14.929133l-15.370079 0z"/><path fill="#000" fill-rule="evenodd" d="m72.437004 12.645669l15.370079 0l0 14.929133l-15.370079 0z"/><path fill="red" fill-rule="evenodd" d="m12.242783 27.574802l0 -14.929133l15.370079 14.929133z"/><path fill="red" fill-rule="evenodd" d="m12.242783 32.572178l15.370079 0l0 14.929134l-15.370079 0z"/><path fill="red" fill-rule="evenodd" d="m12.192913 52.498688l15.370079 0l0 14.929131l-15.370079 0z"/><path fill="red" fill-rule="evenodd" d="m12.242783 72.42519l15.370079 0l0 14.929138l-15.370079 0z"/></g></svg>